<svg width="1011" height="1011" viewBox="0 0 1011 1011" fill="none" xmlns="http://www.w3.org/2000/svg">
<rect width="1011" height="1011" rx="505.5" fill="#111111"/>
<path d="M138.779 649.642H132.064V632.116L127.213 643.489H122.555L117.703 632.116V649.642H111.34V623.468H119.18L125.068 636.599L130.939 623.468H138.779V649.642ZM167.08 631.729C167.08 632.901 166.875 634.05 166.465 635.175C166.055 636.288 165.469 637.226 164.707 637.987C163.664 639.019 162.498 639.798 161.209 640.325C159.932 640.853 158.338 641.116 156.428 641.116H152.227V649.642H145.477V623.468H156.586C158.25 623.468 159.65 623.614 160.787 623.907C161.936 624.188 162.949 624.616 163.828 625.19C164.883 625.882 165.686 626.767 166.236 627.845C166.799 628.923 167.08 630.218 167.08 631.729ZM160.102 631.888C160.102 631.149 159.902 630.517 159.504 629.989C159.105 629.45 158.643 629.075 158.115 628.864C157.412 628.583 156.727 628.431 156.059 628.407C155.391 628.372 154.5 628.354 153.387 628.354H152.227V636.194H154.16C155.309 636.194 156.252 636.124 156.99 635.983C157.74 635.843 158.367 635.562 158.871 635.14C159.305 634.765 159.615 634.319 159.803 633.804C160.002 633.276 160.102 632.638 160.102 631.888ZM192.832 641.415C192.832 643.993 191.736 646.091 189.545 647.708C187.365 649.313 184.4 650.116 180.65 650.116C178.482 650.116 176.59 649.929 174.973 649.554C173.367 649.167 171.861 648.681 170.455 648.095V641.819H171.193C172.588 642.933 174.146 643.788 175.869 644.386C177.604 644.983 179.268 645.282 180.861 645.282C181.271 645.282 181.811 645.247 182.479 645.177C183.146 645.106 183.691 644.989 184.113 644.825C184.629 644.614 185.051 644.351 185.379 644.034C185.719 643.718 185.889 643.249 185.889 642.628C185.889 642.054 185.643 641.562 185.15 641.151C184.67 640.729 183.961 640.407 183.023 640.185C182.039 639.95 180.996 639.733 179.895 639.534C178.805 639.323 177.779 639.06 176.818 638.743C174.615 638.028 173.027 637.062 172.055 635.843C171.094 634.612 170.613 633.089 170.613 631.272C170.613 628.835 171.703 626.849 173.883 625.313C176.074 623.767 178.887 622.993 182.32 622.993C184.043 622.993 185.742 623.163 187.418 623.503C189.105 623.831 190.564 624.247 191.795 624.751V630.78H191.074C190.02 629.937 188.725 629.233 187.189 628.671C185.666 628.097 184.107 627.81 182.514 627.81C181.951 627.81 181.389 627.851 180.826 627.933C180.275 628.003 179.742 628.144 179.227 628.354C178.77 628.53 178.377 628.8 178.049 629.163C177.721 629.515 177.557 629.919 177.557 630.376C177.557 631.067 177.82 631.601 178.348 631.976C178.875 632.339 179.871 632.673 181.336 632.978C182.297 633.177 183.217 633.37 184.096 633.558C184.986 633.745 185.941 634.003 186.961 634.331C188.965 634.987 190.441 635.884 191.391 637.021C192.352 638.146 192.832 639.61 192.832 641.415ZM217.951 628.53H209.777V649.642H203.027V628.53H194.854V623.468H217.951V628.53ZM249.451 649.642H242.736V632.116L237.885 643.489H233.227L228.375 632.116V649.642H222.012V623.468H229.852L235.74 636.599L241.611 623.468H249.451V649.642ZM275.08 649.642H256.148V623.468H275.08V628.53H262.863V633.048H274.201V638.11H262.863V644.579H275.08V649.642Z" fill="white"/>
<path d="M592.063 193L423.74 358.919H515.115L592.063 284.376L667.809 358.919H759.185L592.063 193Z" fill="#78BFEB"/>
<path d="M592.063 817L423.74 651.081H515.115L592.063 725.624L667.809 651.081H759.185L592.063 817Z" fill="#78BFEB"/>
<path d="M795.254 394.988H705.081L812.087 504.399L705.081 604.191H795.254L903.462 504.399L795.254 394.988Z" fill="#4993C0"/>
<path fill-rule="evenodd" clip-rule="evenodd" d="M204.934 567.24C201.676 569.94 198.961 572.64 196.788 575.34C194.073 577.501 190.544 579.661 186.199 581.821C181.855 583.981 177.51 585.601 173.166 586.681C168.821 587.761 163.12 588.301 156.06 588.301C142.484 588.301 131.08 583.711 121.848 574.531C112.616 565.35 108 553.74 108 539.699C108 527.818 110.444 518.368 115.332 511.347C119.676 504.327 126.192 498.656 134.881 494.336C143.57 490.556 154.159 487.856 166.649 486.236C178.596 484.076 191.629 482.726 205.748 482.186V481.376C205.748 472.735 202.49 466.795 195.974 463.555C190 460.315 180.497 458.695 167.464 458.695C162.033 458.695 155.517 459.774 147.914 461.935C140.312 464.095 132.709 466.795 125.107 470.035H121.034V431.963C125.921 430.883 133.795 429.263 144.656 427.103C154.974 425.483 165.835 424.673 177.239 424.673C203.848 424.673 223.398 428.993 235.888 437.633C247.835 446.814 253.808 460.314 253.808 478.135V584.251H204.934V567.24ZM204.934 542.939V510.537C196.788 511.617 190.272 512.428 185.384 512.968C180.497 513.508 175.61 514.587 170.722 516.207C166.378 517.828 163.119 519.988 160.947 522.688C158.775 525.928 157.689 529.978 157.689 534.838C157.689 541.859 159.59 546.719 163.391 549.42C167.192 552.12 172.894 553.47 180.497 553.47C184.841 553.47 189.186 552.659 193.53 551.039C197.874 548.879 201.676 546.179 204.934 542.939Z" fill="white"/>
<path d="M359.112 588.301C346.152 588.301 334.541 586.681 324.281 583.441C313.48 580.201 304.03 575.071 295.929 568.05C288.369 561.57 282.428 553.199 278.108 542.939C273.788 532.678 271.628 520.798 271.628 507.297C271.628 492.176 274.058 479.486 278.919 469.225C283.239 458.965 289.449 450.324 297.549 443.304C305.65 436.823 314.83 432.233 325.091 429.533C335.351 426.293 346.152 424.673 357.492 424.673C366.133 424.673 374.773 425.753 383.414 427.913C392.054 429.533 400.695 432.503 409.335 436.823V478.946H402.855C401.235 476.786 399.075 474.626 396.375 472.466C393.134 470.305 389.894 468.415 386.654 466.795C383.414 464.635 379.633 462.745 375.313 461.125C370.453 460.045 365.323 459.505 359.923 459.505C347.502 459.505 338.052 463.825 331.571 472.466C324.551 481.106 321.04 492.716 321.04 507.297C321.04 522.418 324.821 533.759 332.381 541.319C339.401 549.42 348.852 553.47 360.733 553.47C367.213 553.47 372.613 552.659 376.933 551.039C381.794 549.959 385.844 548.339 389.084 546.179C392.324 544.019 395.024 542.129 397.184 540.509C399.345 538.349 401.235 536.458 402.855 534.838H409.335V576.151C406.635 577.231 403.395 578.581 399.615 580.201C395.834 581.821 392.054 583.171 388.274 584.251C383.954 585.331 379.633 586.141 375.313 586.681C371.533 587.761 366.133 588.301 359.112 588.301Z" fill="white"/>
<path d="M620.116 585.061V506.902C620.116 499.303 620.116 492.79 620.116 487.363C619.578 481.935 618.77 477.593 617.694 474.336C616.08 471.079 613.927 468.637 611.236 467.009C608.007 465.381 603.971 464.567 599.128 464.567C595.361 465.109 591.593 465.923 587.826 467.009C584.059 468.637 580.292 471.079 576.525 474.336V585.061H528.09V506.902C528.09 499.303 527.821 492.79 527.283 487.363C527.283 481.935 526.476 477.593 524.862 474.336C523.785 471.079 521.633 468.637 518.404 467.009C515.713 465.381 511.677 464.567 506.295 464.567C502.528 464.567 498.761 465.652 494.994 467.823C491.227 469.451 487.459 471.622 483.692 474.336V585.061H435.258V428.744H483.692V445.841C491.765 439.327 499.299 434.171 506.295 430.372C513.291 426.573 521.094 424.673 529.705 424.673C538.854 424.673 547.195 426.844 554.73 431.186C561.726 436.071 567.107 442.856 570.874 451.54C580.023 442.856 588.633 436.343 596.706 432C605.316 427.116 613.658 424.673 621.73 424.673C629.264 424.673 635.722 425.759 641.104 427.93C647.023 430.644 651.867 434.171 655.634 438.514C659.94 443.398 663.168 449.369 665.321 456.425C667.473 463.481 668.55 472.437 668.55 483.292V585.061H620.116Z" fill="white"/>
</svg>
